<svg xmlns="http://www.w3.org/2000/svg" viewBox="0 0 167 167">
	<style>
		.st0{fill:#8598A5;} .st1{fill:#7B80DE;}
	</style>
	<path d="M129.7 71.5c-1-2.4-2.4-4.7-4.3-6.8 1.3-1.8 2.3-3.8 3-5.7 2.4-6.4 1.3-12.7-3-17-6.3-6.3-16-4.6-22.7.1-2-1.9-4.3-3.3-6.8-4.3-8.2-3.3-18-1.3-24.2 4.9-6.2 6.2-8.2 16-4.9 24.2.6 1.4 1.3 2.7 2.1 4L43.8 96.2c-1.7 1.7-3.1 3.8-3.9 6-1.5 3.6-1.7 7.7-.7 11.4l-.7.7c-2.9 2.9-3.9 7.5-2.3 11.3 2 5.3 8.4 8 13.6 5.8 1.3-.5 2.5-1.3 3.5-2.3l.7-.7c3.7 1 7.8.8 11.4-.7 2.2-.9 4.2-2.2 6-3.9l25.1-25.1c1.3.8 2.6 1.5 4 2.1 6.9 2.8 15 1.9 21.1-2.3 6-4.1 9.6-11.1 9.6-18.4.2-3-.4-5.9-1.5-8.6zm-14.6-21.6c.8 0 1.5.2 1.9.7 1.8 1.8 0 6.3-3.8 10.2l-5.7 5.7-6.4-6.4 5.7-5.7c2.9-2.9 6.1-4.5 8.3-4.5zm-52.2 65.3c-.6.6-1.2 1-2 1.3-2.2.9-5 .3-6.6-1.3l-2.1-2.1c-.6-.6-1-1.2-1.3-2-.9-2.2-.3-5 1.3-6.6L77 79.7l10.6 10.6-24.7 24.9zm55.7-31.3c-1 2.5-3.2 4.7-5.7 5.7-2.6 1-5.3 1.1-7.8 0-1.3-.5-2.4-1.3-3.4-2.3L80.3 66c-2.9-2.9-3.9-7.4-2.3-11.2 2-5.2 8.4-7.8 13.5-5.7.8.3 1.6.8 2.3 1.3l-1.3 1.3c-4.6 4.8-4.6 12.2 0 17l6.4 6.4c4.7 4.7 12.3 4.5 17 0l1.3-1.3c.6.7 1 1.5 1.3 2.3.5 1.2.8 2.6.8 3.9.1 1.3-.2 2.6-.7 3.9zM38.5 129z" class="st0"/>
	<path d="M167 25.7v-.1c0-3.4-.8-6.7-2-9.7-2-4.7-5.3-8.6-9.4-11.4C151.4 1.6 146.4 0 141 0H26.2C22.6 0 19.1.7 16 2.1c-4.7 2-8.7 5.3-11.5 9.5C1.7 15.7 0 20.8 0 26.2v114.6c0 3.6.7 7.1 2.1 10.2 2 4.7 5.3 8.7 9.5 11.5 4.2 2.8 9.3 4.5 14.7 4.5h114.6c3.6 0 7.1-.7 10.2-2.1 4.7-2 8.7-5.3 11.5-9.5 2.8-4.2 4.5-9.3 4.5-14.7l-.1-115zm-15 119.8c-.9 2.2-2.5 4.1-4.4 5.4-2 1.3-4.3 2.1-6.8 2.1H26.2c-1.7 0-3.3-.3-4.8-1-2.2-.9-4.1-2.5-5.4-4.4-1.3-2-2.1-4.3-2.1-6.8V26.2c0-1.7.3-3.3 1-4.7.9-2.2 2.5-4.1 4.4-5.4 2-1.3 4.3-2.1 6.8-2.1H141c1.7 0 3.2.3 4.7.9 2.1.9 4 2.4 5.3 4.4 1.3 1.9 2 4.2 2 6.7v114.8c0 1.7-.3 3.3-1 4.7z" class="st1"/>
</svg>
