<svg xmlns="http://www.w3.org/2000/svg" viewBox="0 0 167 167">
	<style>
		.st0{fill:#8598A5;} .st1{fill:#7B80DE;}
	</style>
	<path d="M66.5 94.8c0 1.4.6 2.9 1.7 4 2.2 2.2 5.9 2.3 8 0l22.7-22.7c2.2-2.2 2.2-5.8 0-8s-5.8-2.2-8 0L68.2 90.8c-1.1 1.1-1.7 2.6-1.7 4zm-28.4 15z" class="st0"/>
	<path d="M60.4 73.5c2.1-.7 4.6-.1 6.2 1.5 2.4 2.4 2.4 6.4 0 8.8L53.5 97c-1.7 1.7-2.7 3.8-3.2 6-.3 2.3-.2 4.5.7 6.6.6 1.4 1.4 2.7 2.5 3.8 1.7 1.7 3.8 2.7 6 3.2 2.3.3 4.5.2 6.6-.7 1.4-.6 2.7-1.4 3.8-2.5L83 100.3c2.4-2.4 6.6-2.4 8.9.1 2.3 2.4 2.2 6.3-.1 8.7l-13.1 13.1c-6.8 6.8-17.2 8.9-26.1 5.2-2.9-1.2-5.6-2.9-8-5.3-3.5-3.5-5.7-7.9-6.6-12.4-.9-4.5-.4-9.4 1.4-13.7 1.2-2.9 2.9-5.6 5.3-8l13.2-13s.9-.9 2.5-1.5zM38.2 110l-.1-.2.1.2zm90.7-52.8c-1.6-8-7.1-14.6-14.6-17.7-4.3-1.8-9.2-2.3-13.7-1.4-4.6.9-8.9 3.1-12.4 6.6L75 57.9c-2.4 2.4-2.4 6.4 0 8.8 2.4 2.4 6.4 2.4 8.8 0L97 53.5c1.1-1.1 2.4-2 3.8-2.5 2.1-.9 4.3-1 6.6-.7 2.2.4 4.3 1.5 6 3.2 1.1 1.1 2 2.4 2.5 3.8.9 2.1 1 4.3.7 6.6-.4 2.2-1.5 4.3-3.2 6L100.3 83c-2.4 2.4-2.4 6.6.1 8.9 2.4 2.3 6.3 2.2 8.7-.1l1.5-1.5 11.6-11.6c2.3-2.3 4.1-5.1 5.3-8 1.8-4.4 2-8.9 1.4-13.5z" class="st0"/>
	<path d="M167 25.7v-.1c0-3.4-.8-6.7-2-9.7-2-4.7-5.3-8.6-9.4-11.4C151.4 1.6 146.4 0 141 0H26.2C17.6 0 9.3 4.4 4.5 11.5 1.7 15.7 0 20.8 0 26.2v114.6c0 8.6 4.4 16.9 11.5 21.7 4.2 2.8 9.3 4.5 14.7 4.5h114.6c3.6 0 7.1-.7 10.2-2.1 4.7-2 8.7-5.3 11.5-9.5 2.8-4.2 4.5-9.3 4.5-14.7v-115zm-15 119.8c-.9 2.2-2.5 4.1-4.4 5.4-2 1.3-4.3 2.1-6.8 2.1H26.2c-1.7 0-3.3-.3-4.8-1-2.2-.9-4.1-2.5-5.4-4.4-1.3-2-2.1-4.3-2.1-6.8V26.2c0-1.7.3-3.3 1-4.7.9-2.2 2.5-4.1 4.4-5.4 2-1.3 4.3-2.1 6.8-2.1H141c1.7 0 3.2.3 4.7.9 2.1.9 4 2.4 5.3 4.4 1.3 1.9 2 4.2 2 6.7v114.8c0 1.7-.3 3.3-1 4.7z" class="st1"/>
</svg>
