<svg xmlns="http://www.w3.org/2000/svg" viewBox="0 0 167 167">
	<style>
		.st0{fill:#8598A5;} .st1{fill:#7B80DE;}
	</style>
	<path d="M133 36H34c-3.8 0-7 3.2-7 7s3.2 7 7 7h99c3.8 0 7-3.2 7-7s-3.2-7-7-7zM34 77h63c3.8 0 7-3.2 7-7s-3.2-7-7-7H34c-3.8 0-7 3.2-7 7s3.2 7 7 7zm0 27h18c3.8 0 7-3.2 7-7s-3.2-7-7-7H34c-3.8 0-7 3.2-7 7s3.2 7 7 7zm106-7c0-3.9-3.1-7-7-7H79c-3.8 0-7 3.2-7 7s3.2 7 7 7h54c3.9 0 7-3.1 7-7zM34 131h67c3.8 0 7-3.2 7-7s-3.2-7-7-7H34c-3.8 0-7 3.2-7 7s3.2 7 7 7z" class="st0"/>
	<path d="M167 25.7v-.1c0-3.4-.8-6.7-2-9.7-2-4.7-5.3-8.6-9.4-11.4C151.4 1.6 146.4 0 141 0H26.2C22.6 0 19.1.7 16 2.1c-4.7 2-8.7 5.3-11.5 9.5C1.7 15.7 0 20.8 0 26.2v114.6c0 3.6.7 7.1 2.1 10.2 2 4.7 5.3 8.7 9.5 11.5s9.3 4.5 14.7 4.5h114.6c3.6 0 7.1-.7 10.2-2.1 4.7-2 8.7-5.3 11.5-9.5s4.5-9.3 4.5-14.7l-.1-115zm-15 119.8c-.9 2.2-2.5 4.1-4.4 5.4-2 1.3-4.3 2.1-6.8 2.1H26.2c-1.7 0-3.3-.3-4.8-1-2.2-.9-4.1-2.5-5.4-4.4-1.3-2-2.1-4.3-2.1-6.8V26.2c0-1.7.3-3.3 1-4.7.9-2.2 2.5-4.1 4.4-5.4 2-1.3 4.3-2.1 6.8-2.1H141c1.7 0 3.2.3 4.7.9 2.1.9 4 2.4 5.3 4.4 1.3 1.9 2 4.2 2 6.7v114.8c0 1.7-.3 3.3-1 4.7z" class="st1"/>
</svg>
