<?xml version="1.0" encoding="iso-8859-1"?>
<!-- Generator: Adobe Illustrator 16.0.0, SVG Export Plug-In . SVG Version: 6.00 Build 0)  -->
<!DOCTYPE svg PUBLIC "-//W3C//DTD SVG 1.1//EN" "http://www.w3.org/Graphics/SVG/1.1/DTD/svg11.dtd">
<svg version="1.1" id="Calque_1" xmlns="http://www.w3.org/2000/svg" xmlns:xlink="http://www.w3.org/1999/xlink" x="0px" y="0px"
	 width="167px" height="167px" viewBox="0 0 167 167" style="enable-background:new 0 0 167 167;" xml:space="preserve">
<g>
	<defs>
		<rect id="SVGID_1_" width="167" height="167"/>
	</defs>
	<clipPath id="SVGID_2_">
		<use xlink:href="#SVGID_1_"  style="overflow:visible;"/>
	</clipPath>
	<path style="clip-path:url(#SVGID_2_);fill:#7B80DE;" d="M164.929,16.013c-1.994-4.712-5.313-8.704-9.491-11.529
		C151.263,1.659,146.179,0,140.775,0h-38.149H64.375h-38.18c-3.599,0-7.064,0.735-10.203,2.063
		c-4.713,1.996-8.693,5.31-11.518,9.489C1.649,15.727,0,20.807,0,26.211v38.163v76.401v0.029c0,3.6,0.734,7.064,2.064,10.203
		c1.995,4.713,5.309,8.694,9.488,11.519c3.013,2.04,6.505,3.454,10.243,4.09c0.143,0.023,0.281,0.059,0.425,0.081
		c0.231,0.035,0.47,0.051,0.703,0.081c0.425,0.053,0.847,0.112,1.276,0.145c0.081,0.007,0.163,0.004,0.244,0.01
		c0.581,0.039,1.164,0.067,1.752,0.067h0.016h114.564h0.008c0.146,0,0.291-0.009,0.438-0.011c3.438-0.059,6.749-0.771,9.758-2.045
		c4.711-1.995,8.708-5.306,11.533-9.485c2.824-4.174,4.488-9.251,4.488-14.654v-0.029v-76.4V26.216
		C167,22.617,166.258,19.152,164.929,16.013 M26.211,153c-0.146,0-0.287,0.016-0.432,0.011c-0.281-0.01-0.565-0.011-0.84-0.011
		h-0.004c-1.233,0-2.398-0.472-3.49-0.933c-2.181-0.921-4.053-2.499-5.371-4.451c-1.317-1.957-2.074-4.288-2.074-6.841V64.374
		V26.211c0-1.705,0.335-3.293,0.95-4.75c0.921-2.182,2.476-4.061,4.428-5.379C21.335,14.765,23.643,14,26.195,14h38.18h38.251
		h38.149c1.704,0,3.293,0.346,4.748,0.961c2.183,0.921,4.069,2.48,5.388,4.433c1.316,1.957,2.089,4.27,2.089,6.822v38.159v76.4
		c0,1.705-0.346,3.293-0.961,4.75c-0.921,2.182-2.48,4.067-4.433,5.386c-1.67,1.124-3.601,1.846-5.717,2.035
		c-0.056,0.005-0.108,0.014-0.164,0.018c-0.162,0.013-0.328,0.013-0.493,0.02c-0.151,0.005-0.303,0.017-0.457,0.017H26.211z"/>
	<path style="clip-path:url(#SVGID_2_);fill:#8598A5;" d="M133,36H34c-3.866,0-7,3.134-7,7s3.134,7,7,7h99c3.866,0,7-3.134,7-7
		S136.866,36,133,36"/>
	<path style="clip-path:url(#SVGID_2_);fill:#8598A5;" d="M34,77h63c3.866,0,7-3.134,7-7s-3.134-7-7-7H34c-3.866,0-7,3.134-7,7
		S30.134,77,34,77"/>
	<path style="clip-path:url(#SVGID_2_);fill:#8598A5;" d="M34,104h18c3.866,0,7-3.134,7-7s-3.134-7-7-7H34c-3.866,0-7,3.134-7,7
		S30.134,104,34,104"/>
	<path style="clip-path:url(#SVGID_2_);fill:#8598A5;" d="M140,97c0-3.866-3.134-7-7-7H79c-3.866,0-7,3.134-7,7s3.134,7,7,7h54
		C136.866,104,140,100.866,140,97"/>
	<path style="clip-path:url(#SVGID_2_);fill:#8598A5;" d="M34,131h67c3.866,0,7-3.134,7-7s-3.134-7-7-7H34c-3.866,0-7,3.134-7,7
		S30.134,131,34,131"/>
</g>
</svg>
