<svg xmlns="http://www.w3.org/2000/svg" viewBox="0 0 36.4 32">
	<style>
		.st0{fill:none;} .st1{fill:#7B80DE;}
	</style>
	<path d="M6.3 25.5c0 .4.3.7.7.7h22.6c.4 0 .6-.3.6-.6V8.4H6.3v17.1z" class="st0"/>
	<path d="M29.5 3.4H7c-1.7 0-3.1 1.3-3.1 3.1v19.1c0 1.7 1.3 3 3.1 3h22.6c1.7 0 3.1-1.3 3.1-3.1v-19c-.2-1.7-1.5-3.1-3.2-3.1zm-.8 2c.3 0 .6.2.6.5s-.3.4-.6.4h-.1c-.2 0-.5-.2-.5-.5s.3-.4.6-.4zm-1.5 0c.3 0 .6.2.6.5s-.2.5-.5.5h-.1c-.2 0-.5-.2-.5-.5s.2-.5.5-.5zm-18.8 0h2c.2 0 .5.2.5.5s-.2.5-.5.5h-2c-.2 0-.5-.2-.5-.5s.3-.5.5-.5zm21.8 20.1c0 .4-.3.6-.6.6H7c-.4.1-.7-.2-.7-.6V8.4h23.9v17.1z" class="st1"/>
</svg>
