<svg xmlns="http://www.w3.org/2000/svg" viewBox="0 0 36.4 32">
	<style>
		.st0{fill:#7B80DE;}
	</style>
	<path d="M30.2 2.9c-.1-.2-.2-.4-.3-.5-.2-.3-.5-.5-.8-.6-.3-.2-.6-.3-.9-.4-.6-.3-1.2-.4-1.9-.6C25.2.6 24 .4 22.7.2 21.3.1 19.8 0 18.2 0c-1.5 0-3 .1-4.4.2-1 .1-2 .2-2.8.4-.6.1-1.2.3-1.7.4-.4.1-.8.3-1.1.4-.3.1-.5.2-.8.3-.3.2-.6.4-.9.7-.1.2-.2.3-.3.6-.1.2-.2.4-.1.7v24.7c0 .3.1.5.2.8.1.2.2.4.3.5.2.3.5.5.8.6.3.2.6.3.9.4.5.2 1.2.4 1.9.6 1.1.2 2.3.4 3.7.6 1.4.1 2.9.2 4.4.2s3-.1 4.4-.2c1-.1 2-.2 2.8-.4.6-.1 1.2-.2 1.8-.4.4-.1.8-.2 1.1-.4.3-.1.5-.2.7-.3.3-.2.6-.4.9-.7.1-.2.3-.3.3-.5.1-.2.2-.5.2-.7V3.7c-.1-.3-.2-.6-.3-.8zm-19.5.2c.9-.2 2-.3 3.3-.5 1.3-.1 2.7-.2 4.2-.2s2.9.1 4.1.2c1 .1 1.8.2 2.6.3.6.1 1.1.2 1.5.3l.9.3s.1 0 .1.1c-.3.1-.8.3-1.3.4-.9.2-2.1.4-3.5.6-1.3.1-2.9.2-4.5.2-1.5 0-2.9-.1-4.2-.2-1-.1-1.8-.2-2.6-.3-.4 0-.9-.2-1.4-.3-.3-.1-.6-.2-.8-.3H9c.1 0 .1-.1.2-.1.3-.2.8-.3 1.5-.5zm17.2 25c-.1.1-.2.1-.4.2-.3.2-.8.3-1.5.5-.9.2-2.1.4-3.5.6-1.3.1-2.9.2-4.5.2-1.5 0-2.9-.1-4.2-.2-1-.1-1.8-.2-2.6-.3-.6-.1-1.1-.2-1.5-.3l-.9-.3c-.2-.1-.3-.1-.4-.2-.1 0-.1-.1-.2-.1v-5.6c.5.2 1.1.3 1.7.5 1.1.2 2.3.4 3.7.6 1.4.1 2.9.2 4.4.2s3-.1 4.4-.2c1-.1 2-.2 2.8-.4.6-.1 1.2-.2 1.8-.4.3-.1.5-.2.8-.3v5.5h.1zm0-8.3c-.1.1-.2.1-.4.2-.3.2-.8.3-1.5.5-.9.2-2.1.4-3.5.6-1.3.1-2.9.2-4.5.2-1.5 0-2.9-.1-4.2-.2-1-.1-1.8-.2-2.6-.3-.6-.1-1.1-.2-1.5-.3l-.9-.3c.1-.2-.1-.2-.2-.3-.1 0-.1-.1-.2-.1v-5.6c.5.2 1.1.3 1.7.5 1.1.2 2.3.4 3.7.6 1.4.1 2.9.2 4.4.2s3-.1 4.4-.2c1-.1 2-.2 2.8-.4.6-.1 1.2-.2 1.8-.4.3-.1.5-.2.8-.3l-.1 5.6zm0-8.3c-.1.1-.2.1-.4.2-.3.2-.8.3-1.5.5-.9.2-2.1.4-3.5.6-1.3.1-2.9.2-4.5.2-1.5 0-2.9-.1-4.2-.2-1-.1-1.8-.2-2.6-.3-.6-.1-1.1-.2-1.5-.3l-.9-.3c-.2-.1-.3-.1-.4-.2-.1 0-.1-.1-.2-.1V6.1c.8.2 1.3.3 1.9.5 1.1.2 2.3.4 3.7.5s2.9.2 4.4.2 3-.1 4.4-.2c1-.1 2-.2 2.8-.4.6-.1 1.2-.2 1.8-.4.3-.1.5-.2.8-.3l-.1 5.5z" class="st0"/>
	<path d="M12.8 10.6h-1.5c-.2 0-.5 0-.7-.1-.4-.3-.2-1 .3-1h1.5c.2 0 .5 0 .7.1.4.3.2 1-.3 1zm0 8.6h-1.5c-.2 0-.5 0-.7-.1-.4-.3-.2-1 .3-1h1.5c.2 0 .5 0 .7.1.4.4.2 1-.3 1zm0 8.3h-1.5c-.2 0-.5 0-.7-.1-.4-.3-.2-1 .3-1h1.5c.2 0 .5 0 .7.1.4.4.2 1-.3 1z" class="st0"/>
</svg>
