<svg xmlns="http://www.w3.org/2000/svg" viewBox="0 0 470 715.8">
	<style>
		.st0{fill:#E8E8F4;} .st1{fill:none;stroke:#E8E8F4;stroke-miterlimit:10;} .st2{fill:none;stroke:#E8E8F4;stroke-width:12;stroke-linecap:round;stroke-miterlimit:10;} .st3{fill:none;stroke:#E8E8F4;stroke-width:8;stroke-linecap:round;stroke-miterlimit:10;}
	</style>
	<g>
		<path d="M455.5 1c7.4 0 13.5 6.1 13.5 13.5v686.9c0 7.4-6.1 13.4-13.5 13.4h-441c-7.4 0-13.5-6.1-13.5-13.5V14.5C1 7.1 7.1 1 14.5 1h441m0-1h-441C6.5 0 0 6.5 0 14.5v686.8c0 8 6.5 14.5 14.5 14.5h441c8 0 14.5-6.5 14.5-14.4V14.5c0-8-6.5-14.5-14.5-14.5z" class="st0"/>
	</g>
	<g>
		<path d="M425.4 260.1H44.6c-2.9 0-5.2-2.3-5.2-5.2V64.7c0-2.9 2.3-5.2 5.2-5.2h380.8c2.9 0 5.2 2.3 5.2 5.2v190.2c0 2.9-2.3 5.2-5.2 5.2z" class="st1"/>
		<path d="M430.6 176.6v78.3c0 2.9-2.3 5.2-5.2 5.2H44.6c-2.9 0-5.2-2.3-5.2-5.2v-78.3h391.2z" class="st1"/>
		<path d="M104 211.3c-.5-1.1-1.1-2.1-1.9-3.1-.3-.3-.6-.6-.9-1-2.5-2.5-6-4.1-9.9-4.1s-7.3 1.6-9.9 4.1c-2.5 2.5-4.1 6-4.1 9.9s1.6 7.3 4.1 9.9c2.5 2.5 6 4.1 9.9 4.1s7.3-1.6 9.9-4.1c.3-.3.6-.6.9-1 .8-.9 1.4-2 1.9-3.1.8-1.8 1.3-3.8 1.3-5.8s-.5-4-1.3-5.8zm36.7 0c-.5-1.1-1.1-2.1-1.9-3.1-.3-.3-.6-.6-.9-1-2.5-2.5-6-4.1-9.9-4.1s-7.3 1.6-9.9 4.1c-2.5 2.5-4.1 6-4.1 9.9s1.6 7.3 4.1 9.9c2.5 2.5 6 4.1 9.9 4.1 3.9 0 7.3-1.6 9.9-4.1.3-.3.6-.6.9-1 .8-.9 1.4-2 1.9-3.1.8-1.8 1.3-3.8 1.3-5.8s-.5-4-1.3-5.8zm36.6 0c-.5-1.1-1.1-2.1-1.9-3.1-.3-.3-.6-.6-.9-1-2.5-2.5-6-4.1-9.9-4.1s-7.3 1.6-9.9 4.1c-2.5 2.5-4.1 6-4.1 9.9s1.6 7.3 4.1 9.9c2.5 2.5 6 4.1 9.9 4.1s7.3-1.6 9.9-4.1c.3-.3.6-.6.9-1 .8-.9 1.4-2 1.9-3.1.8-1.8 1.3-3.8 1.3-5.8s-.5-4-1.3-5.8zm248.1 460.8H44.6c-2.9 0-5.2-2.3-5.2-5.2V476.7c0-2.9 2.3-5.2 5.2-5.2h380.8c2.9 0 5.2 2.3 5.2 5.2v190.2c0 2.9-2.3 5.2-5.2 5.2zm0-231.4H44.6c-2.9 0-5.2-2.3-5.2-5.2V295.4c0-2.9 2.3-5.2 5.2-5.2h380.8c2.9 0 5.2 2.3 5.2 5.2v140.1c0 2.8-2.3 5.2-5.2 5.2z" class="st1"/>
		<path d="M430.6 363.6v72.3c0 2.9-2.3 5.2-5.2 5.2H44.6c-2.9 0-5.2-2.3-5.2-5.2v-72.3h391.2zm0 223.3v79.7c0 2.9-2.3 5.2-5.2 5.2H44.6c-2.9 0-5.2-2.3-5.2-5.2v-79.7h391.2z" class="st1"/>
		<path d="M81.9 104.3h131.4m29.6 0h146.8m-307.8 224h61.4m29.6 0H329m-247.1-199h83.8m25.3 0h89.7m-198.8 386h131.4m29.6 0h146.8m-307.8 25h83.8" class="st2"/>
		<g>
			<path d="M203.5 217h35m19 0h58" class="st3"/>
		</g>
		<path d="M104 621.3c-.5-1.1-1.1-2.1-1.9-3.1-.3-.3-.6-.6-.9-1-2.5-2.5-6-4.1-9.9-4.1s-7.3 1.6-9.9 4.1c-2.5 2.5-4.1 6-4.1 9.9s1.6 7.3 4.1 9.9c2.5 2.5 6 4.1 9.9 4.1s7.3-1.6 9.9-4.1c.3-.3.6-.6.9-1 .8-.9 1.4-2 1.9-3.1.8-1.8 1.3-3.8 1.3-5.8s-.5-4-1.3-5.8zm36.4 0c-.5-1.1-1.1-2.1-1.9-3.1-.3-.3-.6-.6-.9-1-2.5-2.5-6-4.1-9.9-4.1s-7.3 1.6-9.9 4.1c-2.5 2.5-4.1 6-4.1 9.9s1.6 7.3 4.1 9.9c2.5 2.5 6 4.1 9.9 4.1s7.3-1.6 9.9-4.1c.3-.3.6-.6.9-1 .8-.9 1.4-2 1.9-3.1.8-1.8 1.3-3.8 1.3-5.8s-.5-4-1.3-5.8zm36.5 0c-.5-1.1-1.1-2.1-1.9-3.1-.3-.3-.6-.6-.9-1-2.5-2.5-6-4.1-9.9-4.1s-7.3 1.6-9.9 4.1c-2.5 2.5-4.1 6-4.1 9.9s1.6 7.3 4.1 9.9c2.5 2.5 6 4.1 9.9 4.1s7.3-1.6 9.9-4.1c.3-.3.6-.6.9-1 .8-.9 1.4-2 1.9-3.1.8-1.8 1.3-3.8 1.3-5.8s-.5-4-1.3-5.8zm36.4 0c-.5-1.1-1.1-2.1-1.9-3.1-.3-.3-.6-.6-.9-1-2.5-2.5-6-4.1-9.9-4.1s-7.3 1.6-9.9 4.1c-2.5 2.5-4.1 6-4.1 9.9s1.6 7.3 4.1 9.9c2.5 2.5 6 4.1 9.9 4.1s7.3-1.6 9.9-4.1c.3-.3.6-.6.9-1 .8-.9 1.4-2 1.9-3.1.8-1.8 1.3-3.8 1.3-5.8s-.5-4-1.3-5.8z" class="st1"/>
		<g>
			<path d="M238.5 627h35m19 0h58" class="st3"/>
		</g>
		<path d="M104 395.3c-.5-1.1-1.1-2.1-1.9-3.1-.3-.3-.6-.6-.9-1-2.5-2.5-6-4.1-9.9-4.1s-7.3 1.6-9.9 4.1c-2.5 2.5-4.1 6-4.1 9.9s1.6 7.3 4.1 9.9c2.5 2.5 6 4.1 9.9 4.1s7.3-1.6 9.9-4.1c.3-.3.6-.6.9-1 .8-.9 1.4-2 1.9-3.1.8-1.8 1.3-3.8 1.3-5.8s-.5-4-1.3-5.8zm36.7 0c-.5-1.1-1.1-2.1-1.9-3.1-.3-.3-.6-.6-.9-1-2.5-2.5-6-4.1-9.9-4.1s-7.3 1.6-9.9 4.1c-2.5 2.5-4.1 6-4.1 9.9s1.6 7.3 4.1 9.9c2.5 2.5 6 4.1 9.9 4.1 3.9 0 7.3-1.6 9.9-4.1.3-.3.6-.6.9-1 .8-.9 1.4-2 1.9-3.1.8-1.8 1.3-3.8 1.3-5.8s-.5-4-1.3-5.8z" class="st1"/>
		<g>
			<path d="M166.5 401h35m19 0h58" class="st3"/>
		</g>
	</g>
</svg>
