<svg xmlns="http://www.w3.org/2000/svg" id="Calque_1" viewBox="0 0 200.2 170.7">
	<style>
		.st0{fill:#DEE3FF;} .st1{fill:#A4ABED;} .st2{fill:#FFFFFF;} .st3{fill:#727CD6;} .st4{fill:#5564BC;}
	</style>
	<g>
		<path d="M30.9 13C14.2 30.9 0 59.2 0 85.7 0 111 9.4 134 24.8 151.6l151.1-.6c15.1-17.5 24.3-40.4 24.3-65.3 0-26.3-14-54.8-30.6-72.7H30.9z" class="st0"/>
		<circle cx="153.3" cy="59.9" r="6.2" class="st1"/>
		<circle cx="147.1" cy="29.9" r="5.1" class="st1"/>
		<circle cx="168.8" cy="39.5" r="7.3" class="st1"/>
		<path d="M61.3 138.3v-11.1c0-9 6.9-16.8 15.9-17.2 9.6-.4 17.4 7.2 17.4 16.7v21.8c0 1.5 1.2 2.7 2.7 2.7l31.8.1c1.5 0 2.7-1.2 2.7-2.7V49.1c0-1.5-1.2-2.7-2.7-2.7H107c-1.5 0-2.7 1.2-2.7 2.7v22.1c0 1.5-1.2 2.7-2.7 2.7h-1.8c-.5 0-.8-.4-.8-.8v-6c0-.5-.4-.8-.8-.8h-9c-.5 0-.8.4-.8.8v6c0 .5-.4.8-.8.8h-3.2c-.5 0-.8-.4-.8-.8v-6c0-.5-.4-.8-.8-.8h-9c-.5 0-.8.4-.8.8v6c0 .5-.4.8-.8.8H69c-.5 0-.8-.4-.8-.8v-6c0-.5-.4-.8-.8-.8h-9c-.5 0-.8.4-.8.8v6c0 .5-.4.8-.8.8H55c-1.5 0-2.7-1.2-2.7-2.7V49.1c0-1.5-1.2-2.7-2.7-2.7H26.9c-1.5 0-2.7 1.2-2.7 2.7v99.3c0 1.5 1.2 2.7 2.7 2.7l31.8-.1c1.5 0 2.7-1.2 2.7-2.7v-10M44.9 98c0 .5-.4.8-.8.8H35c-.5 0-.8-.4-.8-.8V88c0-3 2.4-5.4 5.4-5.4S45 85 45 88v10zm78.1 0c0 .5-.4.8-.8.8H113c-.5 0-.8-.4-.8-.8V88c0-3 2.4-5.4 5.4-5.4 3 0 5.4 2.4 5.4 5.4v10z" class="st2"/>
		<path d="M171.7 14.3h-144c-3.9 0-7.1-3.2-7.1-7.1 0-3.9 3.2-7.1 7.1-7.1h144c3.9 0 7.1 3.2 7.1 7.1 0 3.9-3.2 7.1-7.1 7.1zm7.4 156.4H20.4c-5.7 0-10.3-4.7-10.3-10.3 0-5.7 4.7-10.3 10.3-10.3h158.7c5.7 0 10.3 4.7 10.3 10.3 0 5.6-4.6 10.3-10.3 10.3z" class="st1"/>
		<g>
			<path d="M148.5 80.5c-5.7-10-17-23.9-35.8-23.9-20.4 0-33.2 14.8-43.8 25-2.5 2.4-6.5 2.2-8.8-.4L54 70.9c-1.2-1.4-3.3-1.2-4.3.1-1.7 1.7-2.9 9.7-2.9 19.3 0 9.6 1.2 17.6 2.9 19.3 1 1.3 3.1 1.6 4.3.1l6.2-9.4c2-2.9 6.3-2.9 8.8-.5 9.1 8.8 19.8 20.9 35.5 24.1-.1 0-.2 0-.3-.1v6c0 4 3.3 7.3 7.3 7.3s7.3-3.3 7.3-7.3v-5.6c-.2 0-.4.1-.5.1 15.4-2.4 25-14.4 30.2-23.4 3.6-6.3 3.6-14.1 0-20.4z" class="st3"/>
			<path d="M128.4 87.8c-3.8 0-7-3.1-7-7 0-3.8 3.1-7 7-7 3.8 0 7 3.1 7 7s-3.1 7-7 7z" class="st2"/>
			<path d="M121.7 81.1c-1.1 0-2-1.1-1.7-2.2 1-3.8 4.4-6.6 8.4-6.6s7.5 2.8 8.4 6.6c.3 1.1-.6 2.2-1.7 2.2h-13.4z" class="st4"/>
			<path d="M147 85.2c-2.5 0-4.5-2-4.5-4.5s2-4.5 4.5-4.5 4.5 2 4.5 4.5c-.1 2.5-2.1 4.5-4.5 4.5z" class="st2"/>
			<path d="M142.7 80.9c-.7 0-1.2-.7-1.1-1.4.6-2.4 2.8-4.2 5.4-4.2 2.6 0 4.8 1.8 5.4 4.2.2.7-.4 1.4-1.1 1.4h-8.6zM68.5 99.4c9.1 8.7 19.8 21.1 35.7 24.5v-10.2c0-.9-.7-1.6-1.5-1.7-19.6-2.7-33.9-12.5-33.9-12.5m72.3 6.5c-4.7 1.8-9.5 3.2-14.2 4.3-2.2.5-4.4.9-6.6 1.3-.9.1-1.5.9-1.5 1.7v11c2.9-.5 5.6-1.4 8.1-2.5v1.5c0 3.7 2.7 7 6.3 7.5 4.5.6 8.3-2.9 8.3-7.3v-12.9c2-2.3 3.7-4.7 5.2-6.9-1.8.9-3.7 1.6-5.6 2.3z" class="st4"/>
		</g>
	</g>
</svg>
