<svg viewBox="0 0 267 119" xmlns="http://www.w3.org/2000/svg">
    <defs>
        <linearGradient id="colllect-paperclip-gradient" x1="0%" y1="0%" x2="100%" y2="100%">
            <stop offset="0%" stop-color="#b49edc"/>
            <stop offset="100%" stop-color="#6c7af4"/>
        </linearGradient>
    </defs>

    <path fill="#fff" d="M0 62.257c0-2.969.557-5.747 1.674-8.334a21.836 21.836 0 0 1 4.586-6.811c1.941-1.953 4.223-3.501 6.849-4.643 2.625-1.141 5.447-1.713 8.467-1.713 2.866 0 5.662.61 8.39 1.827 2.726 1.218 5.232 2.944 7.515 5.175l-8.105 8.334c-2.487-2.588-5.087-3.882-7.8-3.882-1.397 0-2.709.261-3.939.781a9.78 9.78 0 0 0-3.197 2.15 10.2 10.2 0 0 0-2.13 3.195c-.521 1.218-.78 2.526-.78 3.921s.259 2.708.78 3.938a10.593 10.593 0 0 0 2.13 3.253 9.476 9.476 0 0 0 3.197 2.188 9.99 9.99 0 0 0 3.939.78c2.764 0 5.389-1.255 7.877-3.767l8.105 8.105c-2.336 2.335-4.866 4.105-7.592 5.309-2.728 1.203-5.524 1.806-8.39 1.806-3.02 0-5.842-.576-8.467-1.73-2.626-1.154-4.909-2.702-6.85-4.643-1.94-1.941-3.469-4.223-4.585-6.849C.557 68.022 0 65.224 0 62.257M53.121 62.257c0 1.395.26 2.708.78 3.938a10.578 10.578 0 0 0 2.131 3.253c.9.939 1.96 1.669 3.178 2.188 1.217.521 2.535.78 3.957.78 1.394 0 2.702-.259 3.919-.78a9.328 9.328 0 0 0 3.158-2.188 10.869 10.869 0 0 0 2.112-3.234c.519-1.218.78-2.535.78-3.957a9.901 9.901 0 0 0-.78-3.921 10.378 10.378 0 0 0-2.112-3.195 9.624 9.624 0 0 0-3.158-2.15 9.875 9.875 0 0 0-3.919-.781c-1.396 0-2.709.261-3.939.781a9.776 9.776 0 0 0-3.196 2.15 10.185 10.185 0 0 0-2.131 3.195 9.884 9.884 0 0 0-.78 3.921m-11.568 0c0-2.969.576-5.747 1.731-8.334 1.154-2.588 2.702-4.857 4.643-6.811 1.941-1.953 4.224-3.501 6.849-4.643 2.626-1.141 5.423-1.713 8.391-1.713s5.758.572 8.371 1.713c2.612 1.142 4.895 2.69 6.85 4.643a21.664 21.664 0 0 1 4.604 6.83c1.115 2.601 1.675 5.372 1.675 8.315 0 2.967-.56 5.765-1.675 8.39-1.117 2.626-2.652 4.908-4.604 6.849-1.955 1.941-4.243 3.489-6.869 4.643-2.625 1.154-5.41 1.73-8.352 1.73-2.968 0-5.765-.576-8.391-1.73-2.625-1.154-4.908-2.702-6.849-4.643-1.941-1.941-3.489-4.223-4.643-6.849-1.155-2.625-1.731-5.423-1.731-8.39M167.277 58.756h19.331c-.457-2.384-1.599-4.224-3.425-5.518-1.827-1.294-3.907-1.94-6.241-1.94a10.98 10.98 0 0 0-3.424.532c-1.091.356-2.081.87-2.969 1.541a8.833 8.833 0 0 0-2.187 2.378 7.585 7.585 0 0 0-1.085 3.007m-11.834 4.604c0-3.475.556-6.614 1.674-9.418 1.116-2.802 2.644-5.18 4.585-7.135 1.941-1.953 4.224-3.449 6.85-4.49 2.626-1.04 5.423-1.561 8.39-1.561 2.968 0 5.746.559 8.334 1.674a20.715 20.715 0 0 1 6.773 4.682c1.927 2.004 3.449 4.395 4.567 7.172 1.115 2.778 1.674 5.803 1.674 9.076l-.153 3.424h-31.012a8.4 8.4 0 0 0 1.503 3.062 9.069 9.069 0 0 0 2.569 2.238 11.886 11.886 0 0 0 3.272 1.32 15.59 15.59 0 0 0 3.653.421c1.344 0 3.068-.249 5.175-.746 2.105-.498 4.274-1.525 6.507-3.081l4.985 7.882c-2.183 1.922-4.809 3.4-7.877 4.435-3.07 1.036-6 1.554-8.79 1.554-3.729 0-7.015-.603-9.856-1.806-2.841-1.204-5.213-2.764-7.115-4.681-1.903-1.915-3.33-4.096-4.281-6.545-.952-2.447-1.427-4.94-1.427-7.477M203.427 62.257c0-2.969.557-5.747 1.674-8.334a21.833 21.833 0 0 1 4.585-6.811c1.941-1.953 4.224-3.501 6.85-4.643 2.625-1.141 5.447-1.713 8.467-1.713 2.866 0 5.662.61 8.39 1.827 2.726 1.218 5.232 2.944 7.515 5.175l-8.105 8.334c-2.487-2.588-5.087-3.882-7.8-3.882-1.397 0-2.709.261-3.939.781a9.77 9.77 0 0 0-3.197 2.15 10.2 10.2 0 0 0-2.13 3.195c-.521 1.218-.78 2.526-.78 3.921s.259 2.708.78 3.938a10.593 10.593 0 0 0 2.13 3.253 9.466 9.466 0 0 0 3.197 2.188 9.99 9.99 0 0 0 3.939.78c2.764 0 5.389-1.255 7.876-3.767l8.106 8.105c-2.336 2.335-4.866 4.105-7.592 5.309-2.728 1.203-5.524 1.806-8.39 1.806-3.02 0-5.842-.576-8.467-1.73-2.626-1.154-4.909-2.702-6.85-4.643-1.941-1.941-3.469-4.223-4.585-6.849-1.117-2.625-1.674-5.423-1.674-8.39M246.647 28.276h11.682v13.432h8.562v11.454h-8.562v29.757h-11.682V28.276z"/>
    <path fill="url(#colllect-paperclip-gradient)" d="M160.698 0l-33.671 7.068 15.053 71.728 12.134-2.547-12.507-59.595 9.404-1.974 15.129 72.087-12.008 15.445-19.176-10.601-17.334-82.592-12.134 2.547 18.5 88.148 33.423 18.478 22.043-28.35L160.698 0z"/>
    <path fill="#fff" d="M92.125 26.982h11.682v55.937H92.125zM114.081 26.982h11.682v55.937h-11.682zM136.036 26.982h11.682v55.937h-11.682z"/>
</svg>
