<?xml version="1.0" encoding="utf-8"?>
<!-- Generator: Adobe Illustrator 21.0.0, SVG Export Plug-In . SVG Version: 6.00 Build 0)  -->
<svg version="1.1" id="Calque_1" xmlns="http://www.w3.org/2000/svg" xmlns:xlink="http://www.w3.org/1999/xlink" x="0px" y="0px"
	 viewBox="0 0 521 133" style="enable-background:new 0 0 521 133;" xml:space="preserve">
<style type="text/css">
	.st0{fill:#FFFFFF;}
	.st1{fill:#313A68;}
	.st2{fill:#465191;}
	.st3{fill:#7B80DE;}
</style>
<g>
	<path class="st0" d="M177.1,79.5c0.4-0.3,0.7-0.4,1-0.5c0.3-0.1,0.6-0.1,0.7-0.1c0.4,0,0.8,0.1,1.2,0.3c0.4,0.2,0.7,0.6,1.1,1.1
		l4.2,6.4c0.1,0.2,0.2,0.4,0.4,0.7c0.1,0.3,0.2,0.5,0.2,0.6c0,0.6-0.2,1-0.5,1.4c-0.4,0.4-0.8,0.7-1.2,1c-2.1,1.4-4.3,2.6-6.8,3.4
		c-2.4,0.9-5,1.3-7.8,1.3c-2.3,0-4.4-0.3-6.5-0.9s-4.1-1.4-5.9-2.5c-1.8-1.1-3.5-2.3-5-3.8c-1.5-1.5-2.8-3.2-3.8-5
		c-1.1-1.8-1.9-3.8-2.5-5.9c-0.6-2.1-0.9-4.3-0.9-6.7s0.3-4.5,0.9-6.7c0.6-2.1,1.4-4.1,2.5-5.9c1.1-1.8,2.3-3.5,3.8-5
		c1.5-1.5,3.2-2.8,5-3.8c1.8-1.1,3.8-1.9,5.9-2.4c2.1-0.6,4.3-0.9,6.5-0.9c2.7,0,5.3,0.4,7.6,1.1c2.3,0.7,4.5,1.8,6.5,3.2l-0.1-0.1
		c0.6,0.3,1,0.7,1.3,1.1c0.3,0.4,0.5,1,0.5,1.6c0,0.5-0.2,0.9-0.5,1.4l-3.4,5.7c-0.7,1.2-1.6,1.8-2.6,1.8c-0.2,0-0.5-0.1-0.8-0.2
		c-0.3-0.1-0.7-0.3-1.1-0.6c-1.1-0.7-2.3-1.3-3.6-1.8c-1.3-0.5-2.6-0.7-4.1-0.7c-1.6,0-3,0.3-4.4,1c-1.3,0.6-2.5,1.5-3.4,2.6
		c-0.9,1.1-1.7,2.4-2.2,3.8c-0.5,1.5-0.8,3-0.8,4.6c0,1.7,0.3,3.2,0.8,4.7s1.3,2.7,2.2,3.7c0.9,1.1,2.1,1.9,3.4,2.5
		c1.3,0.6,2.8,0.9,4.4,0.9c1.4,0,2.8-0.3,4-0.8C174.8,80.9,176,80.2,177.1,79.5z"/>
	<path class="st0" d="M190,70.3c0-2.3,0.3-4.5,0.9-6.7c0.6-2.1,1.4-4.1,2.5-5.9c1.1-1.8,2.3-3.5,3.8-5c1.5-1.5,3.2-2.8,5-3.8
		c1.8-1.1,3.8-1.9,5.9-2.4c2.1-0.6,4.3-0.9,6.7-0.9c3.4,0,6.6,0.6,9.6,1.9c3,1.3,5.6,3,7.8,5.2c2.2,2.2,4,4.8,5.3,7.8
		c1.3,3,1.9,6.3,1.9,9.7c0,2.3-0.3,4.5-0.9,6.7c-0.6,2.1-1.4,4.1-2.5,5.9c-1.1,1.8-2.3,3.5-3.8,5c-1.5,1.5-3.2,2.8-5,3.8
		s-3.8,1.9-5.9,2.5s-4.3,0.9-6.6,0.9c-2.3,0-4.5-0.3-6.7-0.9s-4.1-1.4-5.9-2.5s-3.5-2.3-5-3.8c-1.5-1.5-2.8-3.2-3.8-5
		c-1.1-1.8-1.9-3.8-2.5-5.9C190.3,74.8,190,72.6,190,70.3z M203.7,70.3c0,1.7,0.3,3.2,0.8,4.7s1.2,2.7,2.2,3.7
		c0.9,1.1,2.1,1.9,3.4,2.5c1.3,0.6,2.9,0.9,4.5,0.9c1.6,0,3.1-0.3,4.4-0.9c1.3-0.6,2.4-1.5,3.4-2.5s1.6-2.3,2.1-3.7
		c0.5-1.4,0.7-3,0.7-4.7c0-1.6-0.2-3.1-0.7-4.6c-0.5-1.5-1.2-2.7-2.1-3.8c-0.9-1.1-2-2-3.4-2.6c-1.3-0.6-2.8-1-4.4-1
		c-1.7,0-3.2,0.3-4.5,1s-2.5,1.5-3.4,2.6c-0.9,1.1-1.7,2.4-2.2,3.8C204,67.2,203.7,68.7,203.7,70.3z"/>
	<path class="st0" d="M247,35c0-0.8,0.2-1.5,0.6-2c0.4-0.6,1.1-0.8,2.1-0.8h9.2c0.3,0,0.5,0.1,0.8,0.2c0.3,0.1,0.5,0.3,0.8,0.6
		c0.2,0.3,0.4,0.6,0.6,0.9c0.2,0.4,0.2,0.7,0.2,1.2v56.3c0,1-0.3,1.7-0.8,2.2s-1.2,0.7-2.1,0.7h-8.7c-1,0-1.7-0.2-2.1-0.7
		c-0.4-0.5-0.6-1.2-0.6-2.2V35z"/>
	<path class="st0" d="M270.3,35c0-0.8,0.2-1.5,0.6-2c0.4-0.6,1.1-0.8,2.1-0.8h9.2c0.3,0,0.5,0.1,0.8,0.2c0.3,0.1,0.5,0.3,0.8,0.6
		c0.2,0.3,0.4,0.6,0.6,0.9c0.2,0.4,0.2,0.7,0.2,1.2v56.3c0,1-0.3,1.7-0.8,2.2s-1.2,0.7-2.1,0.7H273c-1,0-1.7-0.2-2.1-0.7
		c-0.4-0.5-0.6-1.2-0.6-2.2V35z"/>
	<path class="st0" d="M333.8,88.5c-2.2,2-4.7,3.6-7.5,4.8c-2.8,1.1-5.7,1.7-8.8,1.7c-3.4,0-6.7-0.6-9.8-1.9c-3.1-1.3-5.8-3-8.1-5.2
		c-2.3-2.2-4.1-4.8-5.5-7.9c-1.4-3-2-6.3-2-9.8c0-2.2,0.3-4.4,0.8-6.4c0.5-2.1,1.3-4,2.3-5.8c1-1.8,2.2-3.5,3.6-5
		c1.4-1.5,3-2.8,4.8-3.9c1.8-1.1,3.7-1.9,5.7-2.5c2.1-0.6,4.2-0.9,6.5-0.9c2.1,0,4.1,0.3,6.1,0.8s3.8,1.3,5.5,2.3s3.3,2.2,4.7,3.6
		c1.4,1.4,2.7,2.9,3.7,4.6s1.8,3.5,2.4,5.4c0.6,1.9,0.8,3.9,0.8,5.9c0,1.3,0,2.4-0.1,3.2c0,0.8-0.2,1.5-0.6,2
		c-0.4,0.5-0.9,0.8-1.8,1c-0.8,0.2-2,0.3-3.6,0.3h-27.1c0.3,1.6,0.8,3,1.5,4c0.8,1.1,1.7,1.9,2.7,2.6s2.1,1.1,3.2,1.4
		c1.1,0.3,2.2,0.4,3.2,0.4c0.9,0,1.8-0.1,2.8-0.3c1-0.2,1.9-0.4,2.8-0.8c0.9-0.3,1.7-0.7,2.5-1.1c0.7-0.4,1.3-0.8,1.8-1.3
		c0.4-0.3,0.7-0.6,1-0.7c0.3-0.2,0.6-0.2,0.9-0.2s0.7,0.1,1,0.3s0.7,0.6,1.1,1l4,4.5c0.3,0.3,0.5,0.6,0.5,0.9
		c0.1,0.3,0.1,0.5,0.1,0.8c0,0.5-0.1,0.9-0.4,1.3S334.2,88.2,333.8,88.5z M315.7,57.1c-1,0-1.9,0.2-2.8,0.6
		c-0.9,0.4-1.8,0.9-2.6,1.6c-0.8,0.7-1.5,1.4-2.2,2.2s-1.2,1.7-1.6,2.5h19.3c-0.5-1-1.1-1.9-1.7-2.7c-0.6-0.8-1.3-1.6-2.1-2.2
		c-0.8-0.6-1.7-1.1-2.7-1.5C318.2,57.3,317,57.1,315.7,57.1z"/>
	<path class="st0" d="M377.7,79.5c0.4-0.3,0.7-0.4,1-0.5c0.3-0.1,0.6-0.1,0.7-0.1c0.4,0,0.8,0.1,1.2,0.3c0.4,0.2,0.7,0.6,1.1,1.1
		l4.2,6.4c0.1,0.2,0.2,0.4,0.4,0.7c0.1,0.3,0.2,0.5,0.2,0.6c0,0.6-0.2,1-0.5,1.4c-0.4,0.4-0.8,0.7-1.2,1c-2.1,1.4-4.3,2.6-6.8,3.4
		c-2.4,0.9-5,1.3-7.8,1.3c-2.3,0-4.4-0.3-6.5-0.9s-4.1-1.4-5.9-2.5c-1.8-1.1-3.5-2.3-5-3.8c-1.5-1.5-2.8-3.2-3.8-5
		c-1.1-1.8-1.9-3.8-2.5-5.9c-0.6-2.1-0.9-4.3-0.9-6.7s0.3-4.5,0.9-6.7c0.6-2.1,1.4-4.1,2.5-5.9c1.1-1.8,2.3-3.5,3.8-5
		c1.5-1.5,3.2-2.8,5-3.8c1.8-1.1,3.8-1.9,5.9-2.4c2.1-0.6,4.3-0.9,6.5-0.9c2.7,0,5.3,0.4,7.6,1.1c2.3,0.7,4.5,1.8,6.5,3.2l-0.1-0.1
		c0.6,0.3,1,0.7,1.3,1.1c0.3,0.4,0.5,1,0.5,1.6c0,0.5-0.2,0.9-0.5,1.4l-3.4,5.7c-0.7,1.2-1.6,1.8-2.6,1.8c-0.2,0-0.5-0.1-0.8-0.2
		c-0.3-0.1-0.7-0.3-1.1-0.6c-1.1-0.7-2.3-1.3-3.6-1.8c-1.3-0.5-2.6-0.7-4.1-0.7c-1.6,0-3,0.3-4.4,1c-1.3,0.6-2.5,1.5-3.4,2.6
		c-0.9,1.1-1.7,2.4-2.2,3.8c-0.5,1.5-0.8,3-0.8,4.6c0,1.7,0.3,3.2,0.8,4.7s1.3,2.7,2.2,3.7c0.9,1.1,2.1,1.9,3.4,2.5
		c1.3,0.6,2.8,0.9,4.4,0.9c1.4,0,2.8-0.3,4-0.8C375.4,80.9,376.6,80.2,377.7,79.5z"/>
	<path class="st0" d="M396.5,38.9c0-0.8,0.3-1.4,0.8-1.8c0.5-0.4,1.2-0.8,2.2-1.1l8.6-3c0.1,0,0.2,0,0.4,0c0.1,0,0.2,0,0.3,0
		c0.9,0,1.6,0.3,1.9,0.8c0.3,0.5,0.5,1.2,0.5,2.1l0,11.9h6.3c0.8,0,1.5,0.2,2,0.7c0.5,0.5,0.8,1.2,0.8,2.1v7.3
		c0,1.1-0.3,1.8-0.8,2.3c-0.5,0.5-1.2,0.7-2,0.7H411l0,30.3c0,1-0.3,1.7-0.8,2.2s-1.3,0.7-2.3,0.7h-8.5c-1.9,0-2.9-1-2.9-2.9l0-30.3
		h-2.8c-1.9,0-2.9-1-2.9-3.1v-7.3c0-1.9,1-2.9,2.9-2.9h2.8L396.5,38.9z"/>
	<path class="st0" d="M426.6,83.3c0-0.5,0.1-0.9,0.4-1.2c0.3-0.3,0.7-0.5,1.2-0.5h10c0.4,0,0.8,0.2,1.2,0.5c0.4,0.3,0.5,0.7,0.5,1.2
		v9.1c0,0.5-0.1,0.9-0.4,1.2c-0.3,0.4-0.7,0.5-1.3,0.5h-10c-1.1,0-1.7-0.6-1.7-1.7V83.3z"/>
	<path class="st0" d="M449,30.2c0-1.1,0.2-1.8,0.7-2.2c0.5-0.4,1.2-0.7,2.1-0.7h8.7c0.9,0,1.6,0.2,2.1,0.7c0.5,0.4,0.8,1.2,0.8,2.2
		v7.3c0,0.3-0.1,0.6-0.2,1c-0.1,0.4-0.3,0.7-0.6,1c-0.3,0.3-0.6,0.6-0.9,0.8c-0.4,0.2-0.8,0.3-1.2,0.3h-8.7c-1.9,0-2.8-1-2.8-3.1
		V30.2z M449,49.3c0-0.8,0.2-1.5,0.7-2.1c0.5-0.6,1.2-0.9,2.1-0.9h8.6c0.3,0,0.6,0.1,1,0.2c0.4,0.1,0.7,0.3,1,0.6
		c0.3,0.3,0.6,0.6,0.8,0.9c0.2,0.4,0.3,0.8,0.3,1.2v42c0,1-0.3,1.7-0.8,2.2c-0.5,0.5-1.3,0.7-2.3,0.7h-8.6c-1.9,0-2.8-1-2.8-2.9
		V49.3z"/>
	<path class="st0" d="M471,70.3c0-2.3,0.3-4.5,0.9-6.7c0.6-2.1,1.4-4.1,2.5-5.9c1.1-1.8,2.3-3.5,3.8-5c1.5-1.5,3.2-2.8,5-3.8
		c1.8-1.1,3.8-1.9,5.9-2.4c2.1-0.6,4.3-0.9,6.7-0.9c3.4,0,6.6,0.6,9.6,1.9c3,1.3,5.6,3,7.8,5.2c2.2,2.2,4,4.8,5.3,7.8
		c1.3,3,1.9,6.3,1.9,9.7c0,2.3-0.3,4.5-0.9,6.7c-0.6,2.1-1.4,4.1-2.5,5.9c-1.1,1.8-2.3,3.5-3.8,5c-1.5,1.5-3.2,2.8-5,3.8
		s-3.8,1.9-5.9,2.5s-4.3,0.9-6.6,0.9c-2.3,0-4.5-0.3-6.7-0.9s-4.1-1.4-5.9-2.5s-3.5-2.3-5-3.8c-1.5-1.5-2.8-3.2-3.8-5
		c-1.1-1.8-1.9-3.8-2.5-5.9C471.3,74.8,471,72.6,471,70.3z M484.8,70.3c0,1.7,0.3,3.2,0.8,4.7s1.2,2.7,2.2,3.7
		c0.9,1.1,2.1,1.9,3.4,2.5c1.3,0.6,2.9,0.9,4.5,0.9c1.6,0,3.1-0.3,4.4-0.9c1.3-0.6,2.4-1.5,3.4-2.5s1.6-2.3,2.1-3.7
		c0.5-1.4,0.7-3,0.7-4.7c0-1.6-0.2-3.1-0.7-4.6c-0.5-1.5-1.2-2.7-2.1-3.8c-0.9-1.1-2-2-3.4-2.6c-1.3-0.6-2.8-1-4.4-1
		c-1.7,0-3.2,0.3-4.5,1s-2.5,1.5-3.4,2.6c-0.9,1.1-1.7,2.4-2.2,3.8C485,67.2,484.8,68.7,484.8,70.3z"/>
</g>
<path class="st1" d="M83.1,118.1l-21.8,12.6c-4.8,2.8-10.8,2.8-15.6,0l-21.8-12.6c-4.8-2.8-7.8-8-7.8-13.5V79.4
	c0-5.6,3-10.7,7.8-13.5l21.8-12.6c4.8-2.8,10.8-2.8,15.6,0l21.8,12.6c4.8,2.8,7.8,8,7.8,13.5v25.2C90.9,110.1,87.9,115.3,83.1,118.1
	z"/>
<path class="st2" d="M89,108l-26.1,15.1c-5.8,3.4-13,3.4-18.8,0L17.9,108c-5.8-3.4-9.4-9.5-9.4-16.2V61.5c0-6.7,3.6-12.9,9.4-16.2
	l26.1-15.1c5.8-3.4,13-3.4,18.8,0L89,45.3c5.8,3.4,9.4,9.5,9.4,16.2v30.2C98.3,98.4,94.8,104.6,89,108z"/>
<path class="st3" d="M95.8,95.8l-31.2,18c-6.9,4-15.5,4-22.4,0l-31.2-18c-6.9-4-11.2-11.4-11.2-19.4v-36c0-8,4.3-15.4,11.2-19.4
	L42.3,3c6.9-4,15.5-4,22.4,0l31.2,18c6.9,4,11.2,11.4,11.2,19.4v36C107,84.4,102.7,91.8,95.8,95.8z"/>
<path class="st0" d="M61.7,68.5c0.4-0.3,0.8-0.5,1.1-0.5c0.3-0.1,0.6-0.1,0.8-0.1c0.5,0,0.9,0.1,1.3,0.3c0.4,0.2,0.8,0.6,1.2,1.3
	l4.7,7.1c0.1,0.2,0.3,0.5,0.4,0.7c0.1,0.3,0.2,0.5,0.2,0.7c0,0.6-0.2,1.2-0.6,1.6c-0.4,0.4-0.8,0.8-1.3,1.1
	c-2.3,1.6-4.8,2.9-7.5,3.8c-2.7,1-5.6,1.4-8.6,1.4c-2.5,0-4.9-0.3-7.2-1c-2.3-0.6-4.5-1.6-6.5-2.7c-2-1.2-3.8-2.6-5.5-4.3
	c-1.7-1.7-3.1-3.5-4.3-5.5s-2.1-4.2-2.7-6.6c-0.7-2.4-1-4.8-1-7.4c0-2.6,0.3-5,1-7.4c0.7-2.4,1.6-4.6,2.7-6.6s2.6-3.9,4.3-5.5
	c1.7-1.7,3.5-3.1,5.5-4.2s4.2-2.1,6.5-2.7c2.3-0.6,4.7-1,7.2-1c3,0,5.8,0.4,8.4,1.2c2.6,0.8,5,2,7.2,3.6l-0.1-0.1
	c0.6,0.4,1.1,0.8,1.5,1.3c0.4,0.5,0.5,1.1,0.5,1.8c0,0.5-0.2,1-0.5,1.5l-3.7,6.3c-0.8,1.4-1.7,2-2.8,2c-0.3,0-0.6-0.1-0.9-0.2
	c-0.4-0.1-0.8-0.3-1.2-0.6c-1.2-0.8-2.5-1.5-3.9-2c-1.4-0.5-2.9-0.8-4.5-0.8c-1.8,0-3.4,0.4-4.8,1.1c-1.5,0.7-2.7,1.7-3.8,2.9
	c-1,1.2-1.9,2.6-2.4,4.3c-0.6,1.6-0.9,3.3-0.9,5.1c0,1.8,0.3,3.6,0.9,5.2c0.6,1.6,1.4,3,2.4,4.2c1,1.2,2.3,2.1,3.8,2.8
	c1.5,0.7,3.1,1,4.8,1c1.6,0,3.1-0.3,4.5-0.8C59.1,70.1,60.4,69.4,61.7,68.5z"/>
</svg>
