<?xml version="1.0" encoding="utf-8"?>
<!-- Generator: Adobe Illustrator 21.0.2, SVG Export Plug-In . SVG Version: 6.00 Build 0)  -->
<svg version="1.1" id="Calque_1" xmlns="http://www.w3.org/2000/svg" xmlns:xlink="http://www.w3.org/1999/xlink" x="0px" y="0px"
	 viewBox="0 0 523.6 132.7" style="enable-background:new 0 0 523.6 132.7;" xml:space="preserve">
<style type="text/css">
	.st0{clip-path:url(#SVGID_2_);}
	.st1{fill:#FFFFFF;}
	.st2{fill:#313A68;}
	.st3{fill:#465191;}
	.st4{fill:#7B80DE;}
</style>
<g>
	<g>
		<g>
			<defs>
				<rect id="SVGID_1_" x="145.1" y="27.2" width="375.5" height="67.9"/>
			</defs>
			<clipPath id="SVGID_2_">
				<use xlink:href="#SVGID_1_"  style="overflow:visible;"/>
			</clipPath>
			<g class="st0">
				<path class="st1" d="M177.2,79.5c0.8-0.6,2-0.8,2.9-0.3c0.4,0.2,0.7,0.6,1.1,1.1l4.2,6.4c0.1,0.2,0.2,0.4,0.4,0.7
					c0.3,0.7,0.2,1.5-0.4,2c-0.4,0.4-0.8,0.7-1.2,1c-2.1,1.4-4.3,2.6-6.8,3.4c-4.6,1.6-9.7,1.7-14.3,0.4c-2.1-0.6-4.1-1.4-5.9-2.5
					c-3.6-2.1-6.7-5.2-8.8-8.8c-1.1-1.8-1.9-3.8-2.5-5.9c-1.2-4.3-1.2-9,0-13.3c0.6-2.1,1.4-4.1,2.5-5.9c1.1-1.8,2.3-3.5,3.8-5
					c1.5-1.5,3.2-2.8,5-3.8c1.8-1.1,3.8-1.9,5.9-2.4c4.6-1.3,9.6-1.2,14.1,0.2c2.3,0.7,4.5,1.8,6.5,3.2l-0.1-0.1
					c0.6,0.3,1,0.7,1.3,1.1c0.7,0.9,0.6,2.1,0,3l-3.4,5.7c-0.7,1.3-1.9,2.2-3.4,1.7c-0.3-0.1-0.7-0.3-1.1-0.6
					c-1.1-0.7-2.3-1.3-3.6-1.8c-2.7-1-5.8-1-8.4,0.3c-1.3,0.6-2.5,1.5-3.4,2.6c-0.9,1.1-1.7,2.4-2.2,3.8c-1.1,2.9-1.1,6.3,0,9.3
					c0.5,1.4,1.3,2.7,2.2,3.7c0.9,1.1,2.1,1.9,3.4,2.5c2.6,1.2,5.8,1.2,8.4,0.2C174.9,80.9,176.1,80.2,177.2,79.5z"/>
				<path class="st1" d="M190.2,70.3c0-2.3,0.3-4.5,0.9-6.7c0.6-2.1,1.4-4.1,2.5-5.9c1.1-1.8,2.3-3.5,3.8-5c3-3,6.8-5.2,10.9-6.3
					c5.3-1.4,11.2-1.1,16.3,1c3,1.3,5.6,3,7.8,5.2c2.2,2.2,4,4.8,5.3,7.8c2.2,5.1,2.5,11.1,1.1,16.4c-0.6,2.1-1.4,4.1-2.5,5.9
					c-2.1,3.6-5.2,6.7-8.8,8.8c-1.8,1.1-3.8,1.9-5.9,2.5c-4.3,1.2-8.9,1.2-13.2,0c-2.1-0.6-4.1-1.4-5.9-2.5c-1.8-1.1-3.5-2.3-5-3.8
					c-1.5-1.5-2.8-3.2-3.8-5c-1.1-1.8-1.9-3.8-2.5-5.9C190.5,74.8,190.2,72.6,190.2,70.3z M203.9,70.3c0,1.7,0.3,3.2,0.8,4.7
					c0.5,1.4,1.2,2.7,2.2,3.7c0.9,1.1,2.1,1.9,3.4,2.5c2.7,1.3,6.2,1.3,9,0c1.3-0.6,2.4-1.5,3.4-2.5c0.9-1.1,1.6-2.3,2.1-3.7
					c1-3,1-6.3,0-9.3c-0.5-1.5-1.2-2.7-2.1-3.8c-0.9-1.1-2-2-3.4-2.6c-4.1-2-9.4-0.9-12.4,2.6c-0.9,1.1-1.7,2.4-2.2,3.8
					C204.2,67.2,203.9,68.7,203.9,70.3z"/>
				<path class="st1" d="M247.2,35c0-0.8,0.2-1.5,0.6-2c0.4-0.6,1.1-0.8,2.1-0.8h9.2c0.3,0,0.5,0.1,0.8,0.2c0.3,0.1,0.5,0.3,0.8,0.6
					c0.2,0.3,0.4,0.6,0.6,0.9c0.2,0.4,0.2,0.7,0.2,1.2v56.3c0,1-0.3,1.7-0.8,2.2c-0.5,0.5-1.2,0.7-2.1,0.7h-8.7
					c-1,0-1.7-0.2-2.1-0.7c-0.4-0.5-0.6-1.2-0.6-2.2V35z"/>
				<path class="st1" d="M270.5,35c0-0.8,0.2-1.5,0.6-2c0.4-0.6,1.1-0.8,2.1-0.8h9.2c0.3,0,0.5,0.1,0.8,0.2c0.3,0.1,0.5,0.3,0.8,0.6
					c0.2,0.3,0.4,0.6,0.6,0.9c0.2,0.4,0.2,0.7,0.2,1.2v56.3c0,1-0.3,1.7-0.8,2.2c-0.5,0.5-1.2,0.7-2.1,0.7h-8.7
					c-1,0-1.7-0.2-2.1-0.7c-0.4-0.5-0.6-1.2-0.6-2.2V35z"/>
				<path class="st1" d="M334,88.5c-2.2,2-4.7,3.6-7.5,4.8c-8.9,3.7-19.7,1.2-26.6-5.4c-2.3-2.2-4.1-4.8-5.5-7.9
					c-2.3-5-2.6-10.9-1.2-16.3c0.5-2.1,1.3-4,2.3-5.8c1-1.8,2.2-3.5,3.6-5c1.4-1.5,3-2.8,4.8-3.9c1.8-1.1,3.7-1.9,5.7-2.5
					c4.1-1.2,8.5-1.2,12.6-0.1c2,0.6,3.8,1.3,5.5,2.3c1.7,1,3.3,2.2,4.7,3.6c1.4,1.4,2.7,2.9,3.7,4.6c2.7,4.4,3.4,9.3,3.2,14.4
					c0,0.8-0.2,1.5-0.6,2c-0.4,0.5-0.9,0.8-1.8,1c-0.8,0.2-2,0.3-3.6,0.3h-27.1c0.3,1.6,0.8,3,1.5,4c1.4,2,3.5,3.4,5.9,4
					c2,0.5,4,0.5,6,0.1c1-0.2,1.9-0.4,2.8-0.8c0.9-0.3,1.7-0.7,2.5-1.1c0.7-0.4,1.3-0.8,1.8-1.3c0.4-0.3,0.7-0.6,1-0.7
					c1.2-0.7,2.3,0.3,3.1,1.1l4,4.5C335.9,85.9,335.3,87.5,334,88.5z M315.9,57.1c-1,0-1.9,0.2-2.8,0.6c-0.9,0.4-1.8,0.9-2.6,1.6
					c-1.6,1.3-2.9,2.9-3.7,4.7H326c-0.5-1-1.1-1.9-1.7-2.7c-1.2-1.7-2.9-3-4.8-3.7C318.4,57.2,317.2,57.1,315.9,57.1z"/>
				<path class="st1" d="M377.9,79.5c0.8-0.6,2-0.8,2.9-0.3c0.4,0.2,0.7,0.6,1.1,1.1l4.2,6.4c0.1,0.2,0.2,0.4,0.4,0.7
					c0.3,0.7,0.2,1.5-0.4,2c-0.4,0.4-0.8,0.7-1.2,1c-2.1,1.4-4.3,2.6-6.8,3.4c-4.6,1.6-9.7,1.7-14.3,0.4c-2.1-0.6-4.1-1.4-5.9-2.5
					c-3.6-2.1-6.7-5.2-8.8-8.8c-1.1-1.8-1.9-3.8-2.5-5.9c-1.2-4.3-1.2-9,0-13.3c0.6-2.1,1.4-4.1,2.5-5.9c1.1-1.8,2.3-3.5,3.8-5
					c1.5-1.5,3.2-2.8,5-3.8c1.8-1.1,3.8-1.9,5.9-2.4c4.6-1.3,9.6-1.2,14.1,0.2c2.3,0.7,4.5,1.8,6.5,3.2l-0.1-0.1
					c0.6,0.3,1,0.7,1.3,1.1c0.7,0.9,0.6,2.1,0,3l-3.4,5.7c-0.7,1.3-1.9,2.2-3.4,1.7c-0.3-0.1-0.7-0.3-1.1-0.6
					c-1.1-0.7-2.3-1.3-3.6-1.8c-2.7-1-5.8-1-8.4,0.3c-1.3,0.6-2.5,1.5-3.4,2.6c-0.9,1.1-1.7,2.4-2.2,3.8c-1.1,2.9-1.1,6.3,0,9.3
					c0.5,1.4,1.3,2.7,2.2,3.7c0.9,1.1,2.1,1.9,3.4,2.5c2.6,1.2,5.8,1.2,8.4,0.2C375.6,80.9,376.8,80.2,377.9,79.5z"/>
				<path class="st1" d="M396.7,38.9c0-0.8,0.3-1.4,0.8-1.8c0.5-0.4,1.2-0.8,2.2-1.1l8.6-3c0.8-0.2,2.1,0,2.5,0.8
					c0.3,0.5,0.5,1.3,0.5,2.1l0,11.9h6.3c0.8,0,1.5,0.2,2,0.7c0.5,0.5,0.8,1.2,0.8,2.1v7.3c0,1.1-0.3,1.8-0.8,2.3
					c-0.5,0.5-1.2,0.7-2,0.7h-6.3l0,30.3c0,1-0.3,1.7-0.8,2.2c-0.6,0.5-1.3,0.7-2.3,0.7h-8.5c-1.9,0-2.9-1-2.9-2.9l0-30.3h-2.8
					c-1.9,0-2.9-1-2.9-3.1v-7.3c0-1.9,1-2.9,2.9-2.9h2.8L396.7,38.9z"/>
				<path class="st1" d="M426.8,83.3c0-1,0.7-1.7,1.7-1.7h10c0.9,0,1.7,0.7,1.7,1.7v9.1c0,0.5-0.1,0.9-0.4,1.2
					c-0.3,0.4-0.7,0.5-1.3,0.5h-10c-1.1,0-1.7-0.6-1.7-1.7V83.3z"/>
				<path class="st1" d="M449.1,30.2c0-1.1,0.2-1.8,0.7-2.2c0.5-0.4,1.2-0.7,2.1-0.7h8.7c0.9,0,1.6,0.2,2.1,0.7
					c0.5,0.4,0.8,1.2,0.8,2.2v7.3c0,0.3-0.1,0.6-0.2,1c-0.1,0.4-0.3,0.7-0.6,1c-0.3,0.3-0.6,0.6-0.9,0.8c-0.4,0.2-0.8,0.3-1.2,0.3
					h-8.7c-1.9,0-2.8-1-2.8-3.1V30.2z M449.1,49.3c0-0.8,0.2-1.5,0.7-2.1c0.5-0.6,1.2-0.9,2.1-0.9h8.6c0.3,0,0.6,0.1,1,0.2
					c0.4,0.1,0.7,0.3,1,0.6c0.3,0.3,0.6,0.6,0.8,0.9c0.2,0.4,0.3,0.8,0.3,1.2v42c0,1-0.3,1.7-0.8,2.2c-0.5,0.5-1.3,0.7-2.3,0.7h-8.6
					c-1.9,0-2.8-1-2.8-2.9V49.3z"/>
				<path class="st1" d="M471.2,70.3c0-4.4,1.1-8.8,3.4-12.6c1.1-1.8,2.3-3.5,3.8-5c3-3,6.8-5.2,10.9-6.3c5.3-1.4,11.2-1.1,16.3,1
					c3,1.3,5.6,3,7.8,5.2c2.2,2.2,4,4.8,5.3,7.8c2.2,5.1,2.5,11.1,1.1,16.4c-1.1,4.1-3.3,7.9-6.3,10.9c-1.5,1.5-3.2,2.8-5,3.8
					c-1.8,1.1-3.8,1.9-5.9,2.5c-4.3,1.2-8.9,1.2-13.2,0c-2.1-0.6-4.1-1.4-5.9-2.5c-1.8-1.1-3.5-2.3-5-3.8c-1.5-1.5-2.8-3.2-3.8-5
					C472.3,79.1,471.2,74.7,471.2,70.3z M484.9,70.3c0,1.7,0.3,3.2,0.8,4.7c0.5,1.4,1.2,2.7,2.2,3.7c0.9,1.1,2.1,1.9,3.4,2.5
					c2.7,1.3,6.2,1.3,9,0c1.3-0.6,2.4-1.5,3.4-2.5c0.9-1.1,1.6-2.3,2.1-3.7c1-2.9,1-6.3,0-9.3c-0.5-1.5-1.2-2.7-2.1-3.8
					c-0.9-1.1-2-2-3.4-2.6c-4.1-2-9.4-0.9-12.4,2.6c-0.9,1.1-1.7,2.4-2.2,3.8C485.2,67.2,484.9,68.7,484.9,70.3z"/>
			</g>
		</g>
	</g>
	<g>
		<path class="st2" d="M89.1,107.9L62.9,123c-5.8,3.4-13,3.4-18.8,0L18,107.9c-0.6-0.3-1.2-0.7-1.7-1.1c0.7,4.7,3.5,8.8,7.6,11.2
			l21.8,12.6c4.8,2.8,10.8,2.8,15.6,0L83.1,118c4.2-2.4,7-6.6,7.6-11.2C90.3,107.2,89.7,107.6,89.1,107.9z"/>
		<path class="st3" d="M95.9,95.8L91,98.6l-26.2,15.2c-6.9,4-15.5,4-22.4,0L16.1,98.6l-4.9-2.9c-0.8-0.5-1.6-1-2.4-1.6
			c0.7,5,3.4,9.6,7.5,12.6c0.6,0.4,1.1,0.8,1.7,1.1L44.2,123c5.8,3.4,13,3.4,18.8,0l26.1-15.1c0.6-0.3,1.2-0.7,1.7-1.1
			c4.1-3,6.8-7.6,7.5-12.6C97.5,94.8,96.8,95.3,95.9,95.8z"/>
		<path class="st4" d="M95.9,21L64.7,3c-6.9-4-15.5-4-22.4,0L11.2,21C4.3,25,0,32.4,0,40.4v36c0,7,3.3,13.6,8.8,17.8
			c0.7,0.6,1.5,1.1,2.4,1.6l4.9,2.9l26.2,15.2c6.9,4,15.5,4,22.4,0L91,98.6l4.9-2.9c0.8-0.5,1.6-1,2.4-1.6
			c5.5-4.2,8.8-10.8,8.8-17.8v-36C107.1,32.4,102.9,25,95.9,21z"/>
	</g>
	<path class="st1" d="M61.8,68.5c0.4-0.3,0.8-0.5,1.1-0.5c0.7-0.1,1.4-0.2,2.1,0.2c0.4,0.2,0.8,0.6,1.2,1.3l4.7,7.1
		c0.1,0.2,0.3,0.5,0.4,0.7c0.7,1.5-0.6,2.6-1.7,3.3c-2.3,1.6-4.8,2.9-7.5,3.8c-5,1.8-10.7,1.9-15.9,0.5c-2.3-0.6-4.5-1.6-6.5-2.7
		c-2-1.2-3.8-2.6-5.5-4.3c-3.4-3.3-5.7-7.6-7-12.1c-1.3-4.8-1.3-10,0-14.8c2.5-9.2,9.8-16.5,19-19c5-1.4,10.7-1.3,15.7,0.2
		c2.6,0.8,5,2,7.2,3.6L69,35.6c0.6,0.4,1.1,0.8,1.5,1.3c0.7,1,0.7,2.3,0,3.4l-3.7,6.3c-1.2,2-3,2.6-5,1.2c-1.2-0.8-2.5-1.5-3.9-2
		c-3-1.1-6.5-1.1-9.3,0.3c-1.5,0.7-2.7,1.7-3.8,2.9c-1,1.2-1.9,2.6-2.4,4.3c-1.2,3.3-1.2,7,0,10.3c0.6,1.6,1.4,3,2.4,4.2
		c3.2,3.6,8.6,4.8,13.1,3C59.2,70.1,60.5,69.4,61.8,68.5z"/>
</g>
</svg>
