<svg xmlns="http://www.w3.org/2000/svg" viewBox="0 0 470 235.8">
	<style>
		.st0{fill:#E8E8F4;} .st1{fill:none;stroke:#E8E8F4;stroke-width:3;stroke-miterlimit:10;}
	</style>

	<path d="M455.5 1c7.4 0 13.5 6.1 13.5 13.5v76.6H1V14.5C1 7.1 7.1 1 14.5 1h441m0-1h-441C6.5 0 0 6.5 0 14.5v77.6h470V14.5c0-8-6.5-14.5-14.5-14.5z" class="st0"/>
	<path d="M469 92.1v129.2c0 7.4-6.1 13.5-13.5 13.5h-441c-7.4 0-13.5-6.1-13.5-13.5V92.1l468 1m1-2H0v130.2c0 8 6.5 14.5 14.5 14.5h441c8 0 14.5-6.5 14.5-14.5V91.1z" class="st0"/>
	<path d="M299.3 144H36.4c-3.2 0-5.9-2.6-5.9-5.9 0-3.2 2.6-5.9 5.9-5.9h262.9c3.2 0 5.9 2.6 5.9 5.9 0 3.2-2.7 5.9-5.9 5.9zm125.7 0h-93.9c-3.2 0-5.9-2.6-5.9-5.9 0-3.2 2.6-5.9 5.9-5.9H425c3.2 0 5.9 2.6 5.9 5.9 0 3.2-2.7 5.9-5.9 5.9zm-61.6 36h-201c-3.2 0-5.9-2.6-5.9-5.9 0-3.2 2.6-5.9 5.9-5.9h201c3.2 0 5.9 2.6 5.9 5.9 0 3.2-2.6 5.9-5.9 5.9zm-233.1 0H36.5c-3.2 0-5.9-2.6-5.9-5.9 0-3.2 2.6-5.9 5.9-5.9h93.9c3.2 0 5.9 2.6 5.9 5.9-.1 3.2-2.7 5.9-6 5.9zM243.6 49.7H87c-2 0-3.6-1.6-3.6-3.6s1.6-3.6 3.6-3.6h156.6c2 0 3.6 1.6 3.6 3.6s-1.6 3.6-3.6 3.6z" class="st0"/>
	<path d="M51 60.2H38.9c-4.2 0-7.5-3.4-7.5-7.5V40.5c0-4.2 3.4-7.5 7.5-7.5H51c4.2 0 7.5 3.4 7.5 7.5v12.1c0 4.2-3.4 7.6-7.5 7.6z" class="st1"/>
</svg>
