<svg xmlns="http://www.w3.org/2000/svg" viewBox="0 0 470 681.1">
	<style>
		.st0{fill:#E8E8F4;} .st1{fill:none;stroke:#E8E8F4;stroke-miterlimit:10;}
	</style>
	<path d="M455.5 1C463 1 469 7 469 14.5v652.1c0 7.4-6 13.5-13.5 13.5h-441C7 680.1 1 674 1 666.6V14.5C1 7 7 1 14.5 1h441m0-1h-441C6.5 0 0 6.5 0 14.5v652.1c0 8 6.5 14.5 14.5 14.5h441c8 0 14.5-6.5 14.5-14.5V14.5c0-8-6.5-14.5-14.5-14.5z" class="st0"/>
	<path d="M30.3 219h409.4v231.1H30.3z" class="st1"/>
	<path d="M289.1 170.5h-108c-4.3 0-7.8-3.5-7.8-7.8s3.5-7.8 7.8-7.8h108c4.3 0 7.8 3.5 7.8 7.8s-3.5 7.8-7.8 7.8zm-8.1-52.4h-93.6c-2.3 0-4.2-1.9-4.2-4.2 0-2.3 1.9-4.2 4.2-4.2H281c2.3 0 4.2 1.9 4.2 4.2 0 2.3-1.9 4.2-4.2 4.2zm66.7-20.7H131.3c-2.3 0-4.2-1.9-4.2-4.2 0-2.3 1.9-4.2 4.2-4.2h216.4c2.3 0 4.2 1.9 4.2 4.2 0 2.3-1.9 4.2-4.2 4.2zM358 366.9H227c-2.3 0-4.2-1.9-4.2-4.2 0-2.3 1.9-4.2 4.2-4.2h131c2.3 0 4.2 1.9 4.2 4.2.1 2.3-1.8 4.2-4.2 4.2zm-40-44.5h-91c-2.3 0-4.2-1.9-4.2-4.2 0-2.3 1.9-4.2 4.2-4.2h91c2.3 0 4.2 1.9 4.2 4.2 0 2.3-1.9 4.2-4.2 4.2zm62 0h-44c-2.3 0-4.2-1.9-4.2-4.2 0-2.3 1.9-4.2 4.2-4.2h44c2.3 0 4.2 1.9 4.2 4.2 0 2.3-1.9 4.2-4.2 4.2zm31.4-22.3H227c-2.3 0-4.2-1.9-4.2-4.2 0-2.3 1.9-4.2 4.2-4.2h184.4c2.3 0 4.2 1.9 4.2 4.2.1 2.3-1.8 4.2-4.2 4.2zm-13.2 44.5H227c-2.3 0-4.2-1.9-4.2-4.2 0-2.3 1.9-4.2 4.2-4.2h171.1c2.3 0 4.2 1.9 4.2 4.2.1 2.3-1.8 4.2-4.1 4.2z" class="st0"/>
	<path d="M228.9 656.2h181.6c2.9 0 5.2-2.3 5.2-5.2V486.1c0-2.9-2.3-5.2-5.2-5.2H228.9c-2.9 0-5.2 2.3-5.2 5.2V651c-.1 2.8 2.3 5.2 5.2 5.2z" class="st1"/>
	<path d="M205.4 602.9h-131c-2.3 0-4.2-1.9-4.2-4.2 0-2.3 1.9-4.2 4.2-4.2h131c2.3 0 4.2 1.9 4.2 4.2 0 2.3-1.9 4.2-4.2 4.2zm-40-44.5h-91c-2.3 0-4.2-1.9-4.2-4.2 0-2.3 1.9-4.2 4.2-4.2h91c2.3 0 4.2 1.9 4.2 4.2 0 2.3-1.9 4.2-4.2 4.2zm61.9 0h-44c-2.3 0-4.2-1.9-4.2-4.2 0-2.3 1.9-4.2 4.2-4.2h44c2.3 0 4.2 1.9 4.2 4.2.1 2.3-1.8 4.2-4.2 4.2zm31.5-22.3H74.4c-2.3 0-4.2-1.9-4.2-4.2 0-2.3 1.9-4.2 4.2-4.2h184.4c2.3 0 4.2 1.9 4.2 4.2 0 2.3-1.9 4.2-4.2 4.2zm-13.2 44.5H74.4c-2.3 0-4.2-1.9-4.2-4.2 0-2.3 1.9-4.2 4.2-4.2h171.1c2.3 0 4.2 1.9 4.2 4.2.1 2.3-1.8 4.2-4.1 4.2z" class="st0"/>
</svg>
